/* XPM */
static char *_6d615d5bce54cd2bbe022cc191ad37b[] = {
/* columns rows colors chars-per-pixel */
"32 32 107 2 ",
"   c #00466D",
".  c #004A74",
"X  c #004E7A",
"o  c #00527E",
"O  c #005582",
"+  c #005B85",
"@  c #095985",
"#  c #005C8B",
"$  c #005E97",
"%  c #00628B",
"&  c #006394",
"*  c #006995",
"=  c #00679A",
"-  c #016B9C",
";  c #006CA2",
":  c #0072A5",
">  c #0075AC",
",  c #007AAE",
"<  c #0077B0",
"1  c #007AB5",
"2  c #007EBA",
"3  c #0380B4",
"4  c #0082BE",
"5  c #0F85B8",
"6  c #4C84A3",
"7  c #588DAA",
"8  c #6092AE",
"9  c #6194B0",
"0  c #6A98B3",
"q  c #0083C1",
"w  c #018AC4",
"e  c #008CCA",
"r  c #0093CD",
"t  c #008ED2",
"y  c #0095D4",
"u  c #019AD6",
"i  c #0B9DD7",
"p  c #019CD9",
"a  c #0B9DD8",
"s  c #109ED7",
"d  c #139FD9",
"f  c #00A1DE",
"g  c #14A2DA",
"h  c #1BA3DA",
"j  c #3DA3CE",
"k  c #2DABDD",
"l  c #34ADDE",
"z  c #37B0DF",
"x  c #39B0DF",
"c  c #01A2E0",
"v  c #10A7E1",
"b  c #3CB1E0",
"n  c #569CC1",
"m  c #46B6E1",
"M  c #49B7E1",
"N  c #4CB9E3",
"B  c #49BDEA",
"V  c #54BAE3",
"C  c #60BEE5",
"Z  c #7FC3DF",
"A  c #65C2E7",
"S  c #69C3E7",
"D  c #66C4E8",
"F  c #6CC5E8",
"G  c #71C6E8",
"H  c #75C8E9",
"J  c #7ACAEA",
"K  c #80A8BE",
"L  c #83ABC1",
"P  c #91AEC1",
"I  c #8BB0C4",
"U  c #92B4C7",
"Y  c #92B5C8",
"T  c #9DBCCC",
"R  c #A1BFCF",
"E  c #A3C0D1",
"W  c #B7CEDB",
"Q  c #BED3DE",
"!  c #83CEEB",
"~  c #8DD2EC",
"^  c #98D6EE",
"/  c #96D7F1",
"(  c #9DD8F0",
")  c #A2DAF0",
"_  c #ABDDF1",
"`  c #B1DFF2",
"'  c #B6E3F4",
"]  c #BBE4F4",
"[  c #CDDDE6",
"{  c #D2DEE6",
"}  c #D6E3EA",
"|  c #C0E5F5",
" . c #C5E8F5",
".. c #CAEAF6",
"X. c #D0EBF7",
"o. c #D5EEF8",
"O. c #DCF1F9",
"+. c #E5EDF1",
"@. c #EBEEF1",
"#. c #E8F0F4",
"$. c #E4F4FA",
"%. c #ECF7FB",
"&. c #EDF8FC",
"*. c #FAF5F5",
"=. c #F5FBFD",
"-. c #FEFFFF",
";. c None",
/* pixels */
";.;.;.;.;.;.;.;.;.;.;.;.q 4 4 q 4 4 q q ;.;.;.;.;.;.;.;.;.;.;.;.",
";.;.;.;.;.;.;.;.;.;.q q q q q q 4 4 q 4 q q 4 ;.;.;.;.;.;.;.;.;.",
";.;.;.;.;.;.;.;.q 4 q q 4 q q q q 4 4 q q q q 4 ;.;.;.;.;.;.;.;.",
";.;.;.;.;.;.4 q q 4 4 4 q 2 q 2 q q 4 4 q > * $ - 1 ;.;.;.;.;.;.",
";.;.;.;.;.q q 4 4 q 4 4 q 4 w - > q 4 q = o X X X O > ;.;.;.;.;.",
";.;.;.;.4 q q q y p u e 4 q 3 + $ 4 q & X o o o O X O > ;.;.;.;.",
";.;.;.q q < 4 p f f f f r q * % + > = X o o o o X X X + 2 ;.;.;.",
";.;.;.1 + O r f p p p p f 4 + % % o X o o o X X + $ + . * ;.;.;.",
";.;.q + . 4 f u u p p p f u * % o   X o X o : e u p u > X > ;.;.",
";.;.; . * p u u u u p p p p w o .     o : y f p u p p c = + q ;.",
";.q # . w p u u u p u p u u f - . o - r f f u u u u u p r O > ;.",
";.2 X & p p u u u u u u u p u u r u f p u p u u u p u u p & & ;.",
";.> . 3 f u u p p u u u p y i m S N s y p p p p u u u u c , + q ",
"e ; o u p p u p u p u u y x O.-.-.-.=.x y u u u p p u u p w O 2 ",
"q & - f u u u p p u u u l =.-.' G ` _ s a g g a y u p u p t + > ",
"e $ 4 p N J t a y h ^ y ) -.! t y y u r F -.=.=.( g u p p y + > ",
"q & w p N -.F t s o.o.y $.=.d u i u i y G -.` | -.X.s u u u # < ",
"q $ w p N -.-.H ] -. .i %.&.i p p p i y G -.l t G -.H y p u # < ",
"e # 1 p N -.&.-.=.-.X.y ] -.V t y y y t G -.x y i &.] y f e # 2 ",
";.$ - u N -.S | G ..O.t V -.&.F k S ! y G -.x y s =.] y f 4 # e ",
";.* o t N -.V y u o.o.u y J -.-.-.-.-.k A -.l t ! -.F y f - = ;.",
";.; . ; B -.V y u o.O.y u y l ~ ` ^ N y G -...O.-.| u p y + , ;.",
";.;.@ . j =.m y u ] ` y p i y y y y y t C %.$.O.! i y f < + ;.;.",
";.;.; . + u p u u u m k y p p p p i y J x u i u y u p u O : ;.;.",
";.;.;.& . & p p u u X.O.i u p p a y C -.! t p u i u c = # ;.;.;.",
";.;.;.q &   * u p a O.-._ y u a y x =.-.( y i u u c , X < ;.;.;.",
";.;.;.;.q ; . + r v %.-.-.) a y l $.-.-._ u i u f 4 X : ;.;.;.;.",
";.;.;.;.;.q > O X 5 %.-.=.-.$.' =.-.=.-.) y f f , X = ;.;.;.;.;.",
";.;.;.;.;.;.q q ; @ +.-.Q #.{ @.[ } =.*./ p y = O ; ;.;.;.;.;.;.",
";.;.;.;.;.;.;.;.e 2 +.T Y Y L L 8 I 9 P Z ; # # ;.;.;.;.;.;.;.;.",
";.;.;.;.;.;.;.;.;.;.X.U W I E L 0 T 6 K n $ ;.;.;.;.;.;.;.;.;.;.",
";.;.;.;.;.;.;.;.;.;.;.;.7 [ U Q T E } { ;.;.;.;.;.;.;.;.;.;.;.;."
};
