/* XPM */
static char *fedcb31faf4a42d1e3aac6fc50609bd2[] = {
/* columns rows colors chars-per-pixel */
"16 16 192 2 ",
"   c #034468",
".  c #004A74",
"X  c #024D76",
"o  c #004E78",
"O  c #00527E",
"+  c #00527F",
"@  c #005383",
"#  c #005485",
"$  c #005684",
"%  c #005784",
"&  c #005A88",
"*  c #005B8A",
"=  c #005D8E",
"-  c #005E8F",
";  c #055D8C",
":  c #006189",
">  c #006091",
",  c #006490",
"<  c #006395",
"1  c #006397",
"2  c #066394",
"3  c #006496",
"4  c #006498",
"5  c #00659A",
"6  c #00679B",
"7  c #00689B",
"8  c #036D99",
"9  c #016B9D",
"0  c #036A9F",
"q  c #04699D",
"w  c #046B9F",
"e  c #006AA0",
"r  c #006AA1",
"t  c #006DA0",
"y  c #006CA1",
"u  c #026CA0",
"i  c #006EA0",
"p  c #006EA5",
"a  c #006FA5",
"s  c #0071A4",
"d  c #0072A5",
"f  c #0070A7",
"g  c #0072AA",
"h  c #0472A8",
"j  c #0075A8",
"k  c #0677AE",
"l  c #0078AE",
"z  c #007AAF",
"x  c #0579AC",
"c  c #1078AB",
"v  c #007BB5",
"b  c #007CB4",
"n  c #007DB9",
"m  c #0080BC",
"M  c #0081BC",
"N  c #0080BD",
"B  c #0081BE",
"V  c #0081BF",
"C  c #0082BF",
"Z  c #1185B7",
"A  c #2C84B0",
"S  c #0082C0",
"D  c #0083C0",
"F  c #0083C1",
"G  c #0084C1",
"H  c #0087C0",
"J  c #0084C2",
"K  c #0084C3",
"L  c #0086C4",
"P  c #0087C5",
"I  c #0086C6",
"U  c #0088C0",
"Y  c #0088C3",
"T  c #008AC2",
"R  c #0089C6",
"E  c #008DC6",
"W  c #008BC8",
"Q  c #008DCA",
"!  c #008FCD",
"~  c #0091CD",
"^  c #0193CD",
"/  c #0093CE",
"(  c #008BD0",
")  c #008BD1",
"_  c #008ED2",
"`  c #0091D2",
"'  c #0091D3",
"]  c #0292D3",
"[  c #0197D1",
"{  c #0095D4",
"}  c #0195D4",
"|  c #0096D5",
" . c #0399D6",
".. c #009AD6",
"X. c #009BD7",
"o. c #019BD7",
"O. c #029BD6",
"+. c #029BD7",
"@. c #0D9CD7",
"#. c #0099D8",
"$. c #039BD8",
"%. c #009BDB",
"&. c #009DD9",
"*. c #009CDA",
"=. c #009DDA",
"-. c #019FDB",
";. c #009EDD",
":. c #0C9ED8",
">. c #1B96D5",
",. c #1B9AD6",
"<. c #109FD8",
"1. c #129ED8",
"2. c #179ED8",
"3. c #01A0DC",
"4. c #00A1DE",
"5. c #02A2DE",
"6. c #04A0DC",
"7. c #1AA5DB",
"8. c #2AABDD",
"9. c #2FADDF",
"0. c #30A8DB",
"q. c #33ADDD",
"w. c #37AFDE",
"e. c #37AFDF",
"r. c #39B1DF",
"t. c #04A1E0",
"y. c #00A4E2",
"u. c #08A4E1",
"i. c #14AAE3",
"p. c #2CAEE0",
"a. c #26B0E4",
"s. c #2EB1E4",
"d. c #3DB2E0",
"f. c #4EA1C5",
"g. c #40A6D0",
"h. c #51B5E1",
"j. c #52BAE4",
"k. c #54BBE4",
"l. c #50BDE7",
"z. c #58BBE3",
"x. c #5CBDE3",
"c. c #55C0E8",
"v. c #62C1E6",
"b. c #64C3E7",
"n. c #6FC3E7",
"m. c #68C6EB",
"M. c #6FCBED",
"N. c #76C7E8",
"B. c #82AAC0",
"V. c #87AEC3",
"C. c #8FB4C8",
"Z. c #96B7C9",
"A. c #ABC4D2",
"S. c #A3C6D9",
"D. c #BBCFDB",
"F. c #BFD2DC",
"G. c #83C8E8",
"H. c #85CFEB",
"J. c #86CFEC",
"K. c #8CD1EC",
"L. c #8ED2ED",
"P. c #93D4EE",
"I. c #9AD7EF",
"U. c #98D8F1",
"Y. c #9EDDF5",
"T. c #A3DBF0",
"R. c #A6DAF0",
"E. c #ACDEF1",
"W. c #ADDEF1",
"Q. c #ADDEF2",
"!. c #AEDFF2",
"~. c #ADE1F5",
"^. c #AFE5F9",
"/. c #B1E0F2",
"(. c #B3E2F3",
"). c #BCE4F4",
"_. c #C0CFD9",
"`. c #C5DBE6",
"'. c #C1E6F5",
"]. c #CAE8F4",
"[. c #C9E9F6",
"{. c #C1E9F8",
"}. c #C6EEFE",
"|. c #D2EBF6",
" X c #DCEFF8",
".X c #DDF2F9",
"XX c #E0F2FA",
"oX c #E5F4FA",
"OX c #EDF9FD",
"+X c #F2FAFE",
"@X c gray100",
"#X c None",
/* pixels */
"#X#X#X#X#XF C C C C F #X#X#X#X#X",
"#X#X#X#XC C C F C F C s g #X#X#X",
"#X#XI F / P I s l n $ o O 6 #X#X",
"#X#Xy / 4.4.Q : , $ . O * $ p #X",
"#X> y 4.O.=.=.8   o y E =.E < #X",
"v * [ =.O.O.=.P u U 5.6.O.y.l 6 ",
"p s ;.O.=.} <.U.}.l.` ` } 4.U < ",
"p U s.} 1.7.W.W.x.e.k.I.w.#.^ 7 ",
"h P ~.K.W.H.'.,.( _ (.P.[.p./ u ",
"w C Y. XoXv.(.L.r.8.W.>.G.M.I w ",
"2 6 ^.0.n.N.@.).XXz.R.T.].a.b 0 ",
"#X@ f.i.q.j.]  .} 2.b.J.9.{ 0 #X",
"#X#X$ H u.|.d._ @..Xh.( 6.j < #X",
"#X#Xk - Z +XOXm.{.@Xl.%.x - #X#X",
"#X#X#X#Xc `.F._.A.D.g.u ; #X#X#X",
"#X#X#X#X#XS.Z.C.B.V.A #X#X#X#X#X"
};
