/* XPM */
static char *c3f3035f2c4240c4db7140ee2738e613[] = {
/* columns rows colors chars-per-pixel */
"64 64 142 2 ",
"   c #003C6E",
".  c #004066",
"X  c #00466D",
"o  c #004573",
"O  c #004B74",
"+  c #004E79",
"@  c #084F7C",
"#  c #00527E",
"$  c #005582",
"%  c #005B85",
"&  c #0C5883",
"*  c #005C8B",
"=  c #125C86",
"-  c #1A5F89",
";  c #005F90",
":  c #006087",
">  c #00618A",
",  c #1D638B",
"<  c #006394",
"1  c #006699",
"2  c #006A9C",
"3  c #24668E",
"4  c #2A678E",
"5  c #25688F",
"6  c #256C92",
"7  c #2A6E93",
"8  c #336E94",
"9  c #327095",
"0  c #36779A",
"q  c #3B7B9D",
"w  c #006EA4",
"e  c #0071A5",
"r  c #0073AB",
"t  c #0079AE",
"y  c #0077B0",
"u  c #007BB4",
"i  c #0076B8",
"p  c #007DBA",
"a  c #0081B6",
"s  c #0C83B7",
"d  c #0082BE",
"f  c #4C83A3",
"g  c #5088A7",
"h  c #568CA9",
"j  c #5E8FAC",
"k  c #6697B2",
"l  c #6D9BB5",
"z  c #719CB6",
"x  c #77A3BB",
"c  c #7AA4BB",
"v  c #0083C1",
"b  c #008BC5",
"n  c #008DCA",
"m  c #0091CC",
"M  c #008DD1",
"N  c #0095D4",
"B  c #019BD7",
"V  c #0A9CD7",
"C  c #009CD9",
"Z  c #0B9ED9",
"A  c #139ED9",
"S  c #00A0DE",
"D  c #0FA1DA",
"F  c #13A1DA",
"G  c #1BA4DA",
"H  c #22A7DC",
"J  c #26A9DC",
"K  c #2AAADD",
"L  c #35AEDE",
"P  c #38AFDF",
"I  c #00A2E0",
"U  c #10A6E0",
"Y  c #3DB2E0",
"T  c #59ABD4",
"R  c #5BB0DB",
"E  c #43B3E1",
"W  c #4BB7E2",
"Q  c #4DB8E3",
"!  c #53BAE3",
"~  c #5CBEE5",
"^  c #61BFE6",
"/  c #69BFE5",
"(  c #64C1E6",
")  c #6BC3E7",
"_  c #6CC6E9",
"`  c #71C6E8",
"'  c #76C8E9",
"]  c #7DCBEA",
"[  c #8EB2C6",
"{  c #94B4C7",
"}  c #96B7C9",
"|  c #9BBACC",
" . c #81BFDE",
".. c #A2BBCC",
"X. c #A6C1D1",
"o. c #ABC4D3",
"O. c #B0C7D6",
"+. c #B5CAD7",
"@. c #B8C8D5",
"#. c #B4CBD8",
"$. c #BCCFDB",
"%. c #BDD1DD",
"&. c #8CC7E3",
"*. c #82CDEB",
"=. c #88CFEC",
"-. c #8CD1EC",
";. c #95D4EE",
":. c #9BD6EF",
">. c #9FD8EF",
",. c #97D8F1",
"<. c #ADD5EA",
"1. c #A0D9EF",
"2. c #A4DAF0",
"3. c #ADDDF1",
"4. c #B1DFF2",
"5. c #B6E2F3",
"6. c #BBE3F3",
"7. c #C4D5E0",
"8. c #C7D9E3",
"9. c #C8D9E2",
"0. c #C4DEEC",
"q. c #D2DFE7",
"w. c #D5E2E9",
"e. c #D9E4EB",
"r. c #DFE8EE",
"t. c #C5E7F5",
"y. c #CCEAF6",
"u. c #D1ECF7",
"i. c #D5EDF8",
"p. c #DAEFF8",
"a. c #DCF0F9",
"s. c #E1EAEF",
"d. c #E5EEF2",
"f. c #ECF1F4",
"g. c #E2F3FA",
"h. c #ECF7FC",
"j. c #EDF8FD",
"k. c #F0F4F7",
"l. c #F5F7F9",
"z. c #F5FAFD",
"x. c #FEFEFF",
"c. c None",
/* pixels */
"c.c.c.c.c.c.c.c.c.c.c.c.c.c.c.c.c.c.c.c.c.c.c.c.c.c.c.c.v v v v i d v v v c.c.c.c.c.c.c.c.c.c.c.c.c.c.c.c.c.c.c.c.c.c.c.c.c.c.c.",
"c.c.c.c.c.c.c.c.c.c.c.c.c.c.c.c.c.c.c.c.c.c.c.v v v v v v v v v v d v v v v v v v c.c.c.c.c.c.c.c.c.c.c.c.c.c.c.c.c.c.c.c.c.c.c.",
"c.c.c.c.c.c.c.c.c.c.c.c.c.c.c.c.c.c.c.c.v v v d v p d v v d d v v v d d d v d v v v v v c.c.c.c.c.c.c.c.c.c.c.c.c.c.c.c.c.c.c.c.",
"c.c.c.c.c.c.c.c.c.c.c.c.c.c.c.c.c.c.v i v v d d v v d v v v d d v d v v d d d d v v p d v d c.c.c.c.c.c.c.c.c.c.c.c.c.c.c.c.c.c.",
"c.c.c.c.c.c.c.c.c.c.c.c.c.c.c.c.v v v v d d d v v v d v v d d v d v d v v d v v v d v v v v d v c.c.c.c.c.c.c.c.c.c.c.c.c.c.c.c.",
"c.c.c.c.c.c.c.c.c.c.c.c.c.c.d v v v v v d v d d d v v d v d d d d v d i d v v d d v d d v v v v v v c.c.c.c.c.c.c.c.c.c.c.c.c.c.",
"c.c.c.c.c.c.c.c.c.c.c.c.c.v v d v d d v v d d v d v d v v v v v v d v v v v v d d d v v i r 2 2 y d v c.c.c.c.c.c.c.c.c.c.c.c.c.",
"c.c.c.c.c.c.c.c.c.c.c.c.v d v v d v v v d v v v d d v d v v v i v v v v v v v d v v i ; # + + + + $ e v c.c.c.c.c.c.c.c.c.c.c.c.",
"c.c.c.c.c.c.c.c.c.c.c.v v v d d v d v d v v v d v v v d d d a 1 r v v v d v d v v 2 # + # $ # # # # + * p c.c.c.c.c.c.c.c.c.c.c.",
"c.c.c.c.c.c.c.c.c.c.v d d d v v d d d v d d d d d d d v d v t : ; p v d v d v d ; + # # # # # # # # # + % p c.c.c.c.c.c.c.c.c.c.",
"c.c.c.c.c.c.c.c.c.v d v d v p v n M C C N n v d v d d d v d > : % r v d v v p * + $ # # # # # # # # # # + $ p c.c.c.c.c.c.c.c.c.",
"c.c.c.c.c.c.c.c.v d d d d d v M C I C I S S C n d v v d v e : > : > p v v d * + # # # # # # # # # # # # $ + % v c.c.c.c.c.c.c.c.",
"c.c.c.c.c.c.c.d d v v v v v B S C I C C S C S S m d v v a > : : : % w v d > + # # # # # # # # # # # # # # # + < v c.c.c.c.c.c.c.",
"c.c.c.c.c.c.v d v v u e r N S C C I C S C S C C C M d v 2 : > > : : : u < + $ # # # $ # # # # # # $ $ # $ # # + r n c.c.c.c.c.c.",
"c.c.c.c.c.v v v e % # O t S B C C C I C S C C S C S m y : > > > > > > % # # # # # # # # # # $ # + + O + + # # # $ p v c.c.c.c.c.",
"c.c.c.c.c.v v < + # + 2 S B B C C C C S C S S C S C S e : > : : : > % X + # # # # # # # $ + O # * 1 e e < $ + # + < v c.c.c.c.c.",
"c.c.c.c.d b 2 + # # % N B B C C C B B C C C C I S C S m > : : : > : X X O # # # # # # O + * y m C C I S S M w # # + y v c.c.c.c.",
"c.c.c.c.v t + $ # O a S B C B B C B C B C C I C C S B S a : : : : X O O o + # # $ + + < d C C C C B B C B C S t + # * v c.c.c.c.",
"c.c.c.d v ; + $ + < C B B B C C C C C C C C C C S C C B C 2 : : X X X O O O # + O < d C S B B B B B B B C B B I e O + e v c.c.c.",
"c.c.c.v i # + $ + d S B B C B C C B B B C C C C C C C B S b # O O O O O O X o > a C S B B B B C C C C C B C B B N * + * v c.c.c.",
"c.c.v v 2 + # + < S B B C C C C B B B C C B C B B B B C B C 1 . X X X X X % u C S C B B B B C B B C C B C B C B S u + + y b c.c.",
"c.c.d v * # # + v C B B C C N B C C B B C B C B B B B C B B B 2 + + # < a B S B B B C B C B B B B C B B C B B B B B % + ; v c.c.",
"c.c.v p # # + ; C C B B C B C C B B B C B C B B B B B B B B B S B m B S C B B B B C B C C B C B C B C C C C C C B S e O $ p c.c.",
"c.d v r + $ O p S N C B C C C C B C C C B C B B B B B B B B C B B S B B B B B B B B C B C B C C C B B B B C B B B S v + + r v c.",
"c.d v w + # % B B B B B B C C C C C C B B B B B B B B B C B M N B B N N N B B B B B C B C B B C B C C C C N B C B C N % O < b c.",
"c.v v ; + + r S B B C C C C N C C B C B C B B B B B B B N G ` 4.y.y.5.&.P B N B B B B C B C C C C C C C C C C C B B S 1 O * v c.",
"c.v v * + # m S B B B C B C C C C C B C C B B B B B N V -.z.x.x.x.x.x.x.x.5.J B B B B C B B C B C B C N C C B C B B S e O % d c.",
"c.v p * O 1 B B B C C B C C B B B C B B B B B B B N G y.x.x.z.z.x.x.x.l.z.x.5.N B B B B C C C C N C C B C C C C C B S a + # u v ",
"d v p $ + p S B C B C B B C C C C B C C C B B B B V y.x.x.x.x.x.h.k.x.x.x.u.J B B B N B B C B B C C B C C C B B C B C b # + r v ",
"v v u # $ N C B C B B C C B C B B C C C N B C C N ;.x.x.x.x.5.E F D J -.2.A N B B A G G G G F B N C C B B C C C C C C N $ + r b ",
"d v u O 2 C B C B =._ M C C B B B B C M ^ ;.N N K z.x.x.x.' N N B B N N N B B B B t.x.z.z.z.j.y.] F N C C B B C B B C N * + r v ",
"d v y O t S B B N ;.x.~ N C B C C C M ! x.2.N N *.x.z.x.1.M C C B B B B B B B B B a.x.x.x.x.x.x.x.h.~ N C B C C C B C C ; o r b ",
"v v r O a S B C N ;.x.x.^ N C C S M Q z.x.1.N B t.x.x.x.L B B B B B B B B B B B B a.x.x.x.x.x.x.z.x.x.( N C C C C B B C < O r v ",
"d v r O a S B V N ;.x.z.x.^ N Z N ! x.z.x.2.N Z a.x.x.a.C B B B B B B B C B B B B a.x.x.;.P ~ 5.x.x.x.x.P B C B C B B C < O y b ",
"d v e O a S B C N ;.x.x.x.x.^ M ! x.x.x.x.2.M D g.x.x.i.N C B B B B B B B B B B B a.x.x.( M V M ! x.x.x.6.N C C B B B C * + y v ",
"v v e O u I C C N ;.x.z.x.x.z.;.l.x.x.x.x.2.N B i.x.x.k.G B B B B B B B B B B B C a.x.x.) N B V N ' x.x.x.K N B C B C B * # p v ",
"c.n e o w C C C N ;.x.x.x.x.z.x.x.x.x.z.x.2.N B 3.x.x.x.~ M Z B B B B B C B B B V a.x.x.) N C B B A h.x.x.( N C B B B m # $ d c.",
"c.v r O > C C C N ,.x.x.g.k.x.z.x.l.g.x.x.2.N N ~ x.x.x.a.F N C B B B B B B B B N a.x.x.) N V B C C y.x.x.*.V C B B S b O * v c.",
"c.v e + # m C C N ;.x.x.2.E x.x.x.Q ;.x.x.2.N C V p.x.z.x.y.K N N N N D ~ V B B C a.x.x.) N C B B B u.x.x.] N C B B S t o 1 v c.",
"c.v r + @ t I B N ;.x.x.4.m ! x.( M 2.x.x.2.N C N Q x.x.x.x.z.3.' ) ;.d.x.>.N B B a.x.x.) N V C N J z.x.x.~ N C B B S 1 o r n c.",
"c.b r + # * C B N ;.x.x.3.N B H B N 2.x.x.2.N C C N ] x.x.x.x.x.x.x.x.x.z.x.*.N C a.x.x.) N V B N ;.x.x.z.H B C B S N # # a v c.",
"c.c.i # # + d S N ;.x.x.4.N V B V N 1.x.x.2.N C B B N ) z.x.x.x.z.z.z.x.x.x.:.N V a.x.x./ M N B -.x.x.x.2.N B C B S a O * d c.c.",
"c.c.v % # + * C N ;.x.x.3.N C C C N 2.x.x.2.N N B B B N J >.h.x.x.x.x.x.t.Q N B B a.x.x.4.` ;.a.x.x.x.h.H B C B B S 1 O w v c.c.",
"c.c.b 1 + # O s C ;.x.x.3.N C B C N 1.x.x.2.N V C B B B N N F Y ^ ( Q H B N B B C p.x.x.x.x.x.x.z.x.z.E N C B C B b + # u b c.c.",
"c.c.c.y + $ # $ m ,.x.x.4.N C B C N 2.x.x.2.N C B B N B B B B N N N B B B B B B C g.x.x.x.x.x.x.x.y.K N B B C B C w o ; v c.c.c.",
"c.c.c.v * + # @ < _ a.a.*.B C B C M ` a.a.' N C B B B B B B B B B B B B B B B N N 1.p.y.y.u.t.:.W B N B C B B C n # + r v c.c.c.",
"c.c.c.c.t + # # + r C B B B B B C C B B B B N C C B C B C C C C B B B B B B B Q F N B B C B N N N C C C B B B C 2 O % d c.c.c.c.",
"c.c.c.c.b 2 + # # + d C B B B B C B B B H g.*.N C B C C C B B C B B B B C N ;.x.;.N C C C C C C C C B B C B S d + + r n c.c.c.c.",
"c.c.c.c.c.v * + $ # # b C C C C B B C N *.x.x.^ N C C C B B B B B B B C N ( x.x.g.Z C C B C C C C C B B B C B % + * v c.c.c.c.c.",
"c.c.c.c.c.c.p $ + # # $ m C B C B C C B 6.x.x.z.L N C B C C C C C B C N P z.x.x.x.K N B C C B B C C B B B S 2 O + y n c.c.c.c.c.",
"c.c.c.c.c.c.v p $ + $ + $ m C C C B B B u.x.x.x.a.G B B B B C C B C N F p.x.x.x.x.E N C C C C C B B B B S u + + 1 v c.c.c.c.c.c.",
"c.c.c.c.c.c.c.v u % + $ + $ b I B B C Z g.x.x.x.x.t.V B C B C B C C B 6.x.x.x.x.x.! N C C B B C B B B S d + + * d c.c.c.c.c.c.c.",
"c.c.c.c.c.c.c.c.v p * + # # # d S C B F f.x.x.x.x.x.6.V N C C B C N 1.x.x.x.x.z.x.! N C B C C B C B S b # # # t c.c.c.c.c.c.c.c.",
"c.c.c.c.c.c.c.c.c.v v 1 # + # O r C C F h.x.x.x.x.z.x.t.H N V N A 3.x.x.x.x.x.x.x.~ V S C B C B B S b # + # y c.c.c.c.c.c.c.c.c.",
"c.c.c.c.c.c.c.c.c.c.v v y % + # O < m U h.x.x.x.x.x.x.x.z.-.! ' a.x.x.x.x.x.x.x.x.! M B B B B B S d # # + r c.c.c.c.c.c.c.c.c.c.",
"c.c.c.c.c.c.c.c.c.c.c.v v d 2 # # + $ s g.x.x.x.x.x.x.z.x.x.x.x.x.z.x.x.x.x.z.x.x.Q N S B B B S t # + # e c.c.c.c.c.c.c.c.c.c.c.",
"c.c.c.c.c.c.c.c.c.c.c.c.v v v p < $ @ @ r.x.x.x.x.x.x.x.x.x.x.x.x.x.x.x.x.x.x.x.x.Y N B B S N 2 + + $ y c.c.c.c.c.c.c.c.c.c.c.c.",
"c.c.c.c.c.c.c.c.c.c.c.c.c.d d v b p 1 $ q.x.x.x.%.} w.x.w.} q.x.O.| X.s.k.x.$.s.x.K B S B d % o + < u c.c.c.c.c.c.c.c.c.c.c.c.c.",
"c.c.c.c.c.c.c.c.c.c.c.c.c.c.c.v p v b i 0.x.x.k = 7 x o.& 0 & } z o f X.g x.8 ..x.U C d < O O * e c.c.c.c.c.c.c.c.c.c.c.c.c.c.c.",
"c.c.c.c.c.c.c.c.c.c.c.c.c.c.c.c.v v v p <.x.8.= s.x.z., X.x.O.- f.6 e.q.  z q X.j.t * o O * e d c.c.c.c.c.c.c.c.c.c.c.c.c.c.c.c.",
"c.c.c.c.c.c.c.c.c.c.c.c.c.c.c.c.c.c.v p  .x.O.3 x.x.f., e.x.d., e.7 e.9., 9 o %.7.o * w y v c.c.c.c.c.c.c.c.c.c.c.c.c.c.c.c.c.c.",
"c.c.c.c.c.c.c.c.c.c.c.c.c.c.c.c.c.c.c.c.T x.z.7 h [ ..j 5 o.9 f $.@ } +.4 f.& @.&.i b n c.c.c.c.c.c.c.c.c.c.c.c.c.c.c.c.c.c.c.c.",
"c.c.c.c.c.c.c.c.c.c.c.c.c.c.c.c.c.c.c.c.c.c.x.e.g 0 } x.x 0 l l.l q h %.l x.9.$.R c.c.c.c.c.c.c.c.c.c.c.c.c.c.c.c.c.c.c.c.c.c.c.",
"c.c.c.c.c.c.c.c.c.c.c.c.c.c.c.c.c.c.c.c.c.c.c.c.c.c.c.x.x.x.x.x.x.x.x.x.x.c.c.c.c.c.c.c.c.c.c.c.c.c.c.c.c.c.c.c.c.c.c.c.c.c.c.c."
};
